<svg xmlns="http://www.w3.org/2000/svg" viewBox="0 0 100 125" x="0px" y="0px"><title>120 Weather Icons Expended</title><g data-name="Layer 2"><path d="M50,20.62a.94.94,0,0,0,.94-.94v-14a.94.94,0,0,0-1.87,0v14A.94.94,0,0,0,50,20.62Z"/><path d="M27.89,29.24a.94.94,0,1,0,1.32-1.32L19.31,18A.94.94,0,0,0,18,19.34Z"/><path d="M20.62,50a.94.94,0,0,0-.94-.94h-14a.94.94,0,0,0,0,1.87h14A.94.94,0,0,0,20.62,50Z"/><path d="M50,79.38a.94.94,0,0,0-.94.94v14a.94.94,0,0,0,1.87,0v-14A.94.94,0,0,0,50,79.38Z"/><path d="M72.11,70.76a.94.94,0,0,0-1.32,1.32l9.9,9.9A.94.94,0,1,0,82,80.66Z"/><path d="M94.32,49h-14a.94.94,0,1,0,0,1.87h14a.94.94,0,0,0,0-1.87Z"/><path d="M71.42,29.48a.93.93,0,0,0,.66-.27l9.9-9.9A.94.94,0,0,0,80.66,18l-9.9,9.9a.94.94,0,0,0,.66,1.6Z"/><path d="M73,50a23,23,0,0,0-46-.47,12.39,12.39,0,0,0-9.22,8.86A10.51,10.51,0,0,0,10.19,68.5,10.43,10.43,0,0,0,11,72.61,10.63,10.63,0,0,0,13.28,76h0a10.64,10.64,0,0,0,3.38,2.26,10.43,10.43,0,0,0,4.11.84H41.62A10.2,10.2,0,0,0,49.09,76a10.64,10.64,0,0,0,2.12-3A23,23,0,0,0,73,50ZM47.68,74.57a8.16,8.16,0,0,1-6.05,2.52H20.77a8.44,8.44,0,0,1-3.33-.68,8.65,8.65,0,0,1-2.75-1.83h0a8.64,8.64,0,0,1-1.83-2.75,8.44,8.44,0,0,1-.68-3.33,8.51,8.51,0,0,1,6.66-8.31l.62-.14.14-.62a10,10,0,0,1,3.65-5.91,10.58,10.58,0,0,1,13.09-.06A10,10,0,0,1,40,59.19l.19.77h1.4a8.55,8.55,0,0,1,6.05,14.61Zm4.24-3.66a11,11,0,0,0,.27-2.4A10.55,10.55,0,0,0,41.77,58a12.1,12.1,0,0,0-4.2-6.07,12.24,12.24,0,0,0-7.73-2.67c-.27,0-.54,0-.81,0A21,21,0,1,1,51.92,70.9Z"/></g><text x="0" y="115" fill="#000000" font-size="5px" font-weight="bold" font-family="'Helvetica Neue', Helvetica, Arial-Unicode, Arial, Sans-serif">Created by Yarden Gilboa</text><text x="0" y="120" fill="#000000" font-size="5px" font-weight="bold" font-family="'Helvetica Neue', Helvetica, Arial-Unicode, Arial, Sans-serif">from the Noun Project</text></svg>