<svg xmlns="http://www.w3.org/2000/svg" viewBox="0 0 100 125" x="0px" y="0px"><title>120 Weather Icons Expended</title><g data-name="Layer 2"><path d="M41.49,70.5a1,1,0,0,0-1.22.71L35.09,90.53A1,1,0,1,0,37,91l5.18-19.32A1,1,0,0,0,41.49,70.5Z"/><path d="M50.77,70.5a1,1,0,0,0-1.22.71l-3.75,14a1,1,0,1,0,1.93.52l3.75-14A1,1,0,0,0,50.77,70.5Z"/><path d="M30.77,70.5a1,1,0,0,0-1.22.71l-3.75,14a1,1,0,1,0,1.93.52l3.75-14A1,1,0,0,0,30.77,70.5Z"/><path d="M60.73,20.21a1,1,0,0,0,1-1v-10a1,1,0,1,0-2,0v10A1,1,0,0,0,60.73,20.21Z"/><path d="M77.14,27a1,1,0,0,0,.71-.29l7.07-7.07a1,1,0,0,0-1.41-1.41L76.44,25.3A1,1,0,0,0,77.14,27Z"/><path d="M93.94,41.42h-10a1,1,0,0,0,0,2h10a1,1,0,1,0,0-2Z"/><path d="M77.85,58.12a1,1,0,0,0-1.41,1.41l7.07,7.07a1,1,0,0,0,1.41-1.41Z"/><path d="M43.62,26.72A1,1,0,0,0,45,25.3L38,18.23a1,1,0,0,0-1.41,1.41Z"/><path d="M78.73,42.42A18,18,0,0,0,46,32.13,18.32,18.32,0,0,0,19.24,47.4h-.48a13.71,13.71,0,1,0,0,27.41,1,1,0,1,0,0-2,11.71,11.71,0,1,1,0-23.41h2.45v-1a16.33,16.33,0,0,1,32.66,0v1h6.48a11.71,11.71,0,0,1,0,23.41,1,1,0,0,0,0,2A13.69,13.69,0,0,0,72.91,55.63,17.94,17.94,0,0,0,78.73,42.42Zm-6.79,11.4A13.7,13.7,0,0,0,60.35,47.4H55.85a18.32,18.32,0,0,0-8.14-14.23A16,16,0,1,1,71.94,53.82Z"/></g><text x="0" y="115" fill="#000000" font-size="5px" font-weight="bold" font-family="'Helvetica Neue', Helvetica, Arial-Unicode, Arial, Sans-serif">Created by Yarden Gilboa</text><text x="0" y="120" fill="#000000" font-size="5px" font-weight="bold" font-family="'Helvetica Neue', Helvetica, Arial-Unicode, Arial, Sans-serif">from the Noun Project</text></svg>