<svg xmlns="http://www.w3.org/2000/svg" viewBox="0 0 100 125" x="0px" y="0px"><title>120 Weather Icons Expended</title><g data-name="Layer 2"><path d="M50,20.62a.94.94,0,0,0,.94-.94v-14a.94.94,0,0,0-1.87,0v14A.94.94,0,0,0,50,20.62Z"/><path d="M27.89,29.24a.94.94,0,1,0,1.32-1.32L19.31,18A.94.94,0,0,0,18,19.34Z"/><path d="M20.62,50a.94.94,0,0,0-.94-.94h-14a.94.94,0,0,0,0,1.87h14A.94.94,0,0,0,20.62,50Z"/><path d="M27.91,70.79,18,80.69A.94.94,0,0,0,19.34,82l9.9-9.9a.94.94,0,1,0-1.32-1.32Z"/><path d="M50,79.38a.94.94,0,0,0-.94.94v14a.94.94,0,0,0,1.87,0v-14A.94.94,0,0,0,50,79.38Z"/><path d="M72.11,70.76a.94.94,0,0,0-1.32,1.32l9.9,9.9A.94.94,0,1,0,82,80.66Z"/><path d="M94.32,49h-14a.94.94,0,1,0,0,1.87h14a.94.94,0,0,0,0-1.87Z"/><path d="M71.42,29.48a.93.93,0,0,0,.66-.27l9.9-9.9A.94.94,0,0,0,80.66,18l-9.9,9.9a.94.94,0,0,0,.66,1.6Z"/><path d="M50,27A23,23,0,1,0,73,50,23,23,0,0,0,50,27Zm0,44A21,21,0,1,1,71,50,21,21,0,0,1,50,71Z"/></g></svg>